<?xml version="1.0" encoding="UTF-8" standalone="no"?>
<!-- Created with Inkscape (http://www.inkscape.org/) -->

<svg
   xmlns:dc="http://purl.org/dc/elements/1.1/"
   xmlns:cc="http://creativecommons.org/ns#"
   xmlns:rdf="http://www.w3.org/1999/02/22-rdf-syntax-ns#"
   xmlns:svg="http://www.w3.org/2000/svg"
   xmlns="http://www.w3.org/2000/svg"
   xmlns:sodipodi="http://sodipodi.sourceforge.net/DTD/sodipodi-0.dtd"
   xmlns:inkscape="http://www.inkscape.org/namespaces/inkscape"
   id="svg2"
   version="1.1"
   inkscape:version="0.48.4 r9939"
   width="276.85974"
   height="88.027374"
   xml:space="preserve"
   sodipodi:docname="oscon-logo.svg"><metadata
     id="metadata8"><rdf:RDF><cc:Work
         rdf:about=""><dc:format>image/svg+xml</dc:format><dc:type
           rdf:resource="http://purl.org/dc/dcmitype/StillImage" /><dc:title></dc:title></cc:Work></rdf:RDF></metadata><defs
     id="defs6" /><sodipodi:namedview
     pagecolor="#ffffff"
     bordercolor="#666666"
     borderopacity="1"
     objecttolerance="10"
     gridtolerance="10"
     guidetolerance="10"
     inkscape:pageopacity="0"
     inkscape:pageshadow="2"
     inkscape:window-width="1319"
     inkscape:window-height="744"
     id="namedview4"
     showgrid="false"
     inkscape:zoom="1.4181966"
     inkscape:cx="138.30722"
     inkscape:cy="61.125"
     inkscape:window-x="41"
     inkscape:window-y="24"
     inkscape:window-maximized="1"
     inkscape:current-layer="g10"
     fit-margin-top="0"
     fit-margin-left="0"
     fit-margin-right="0"
     fit-margin-bottom="0" /><g
     id="g10"
     inkscape:groupmode="layer"
     inkscape:label="ink_ext_XXXXXX"
     transform="matrix(1.25,0,0,-1.25,-0.24902375,88.027375)"><path
       inkscape:connector-curvature="0"
       id="path14"
       style="fill:#231f20;fill-opacity:1;fill-rule:nonzero;stroke:none"
       d="m 6.1793,4.39063 0,0.78906 c 0,2.01172 -0.5168,3.03125 -1.90352,3.03125 -1.30508,0 -1.87656,-1.06055 -1.87656,-2.86914 l 0,-0.78828 c 0,-2.02539 0.54414,-3.04571 1.91719,-3.04571 1.27812,0 1.86289,1.03321 1.86289,2.88282 z m -5.873831,0.23164 0,0.46171 c 0,3.09961 1.658981,4.63672 3.997661,4.63672 2.3789,0 3.96992,-1.41406 3.96992,-4.5957 l 0,-0.49023 C 8.27305,1.53516 6.62773,0 4.27578,0 1.91016,0 0.305469,1.41328 0.305469,4.62227" /><path
       inkscape:connector-curvature="0"
       id="path16"
       style="fill:#231f20;fill-opacity:1;fill-rule:nonzero;stroke:none"
       d="m 15.4863,4.92109 c 1.0469,0 1.4547,0.50274 1.4547,1.59063 0,1.19609 -0.4215,1.60351 -1.4273,1.60351 l -1.0336,0 0,-3.19414 1.0062,0 z m -2.9773,4.64922 3.2219,0 c 2.2027,0 3.2496,-0.99218 3.2496,-2.94922 0,-2.02656 -1.1285,-3.07304 -3.1817,-3.07304 l -1.3187,0 0,-3.399612 -1.9711,0 0,9.421872" /><path
       inkscape:connector-curvature="0"
       id="path18"
       style="fill:#231f20;fill-opacity:1;fill-rule:nonzero;stroke:none"
       d="m 23.0676,9.57031 5.6281,0 0,-1.49492 -3.657,0 0,-2.35273 2.8824,0 0,-1.48164 -2.8824,0 0,-2.59649 3.7523,0 0,-1.496092 -5.7234,0 0,9.421872" /><path
       inkscape:connector-curvature="0"
       id="path20"
       style="fill:#231f20;fill-opacity:1;fill-rule:nonzero;stroke:none"
       d="m 33.0688,9.57031 2.2296,0 2.2704,-4.58203 c 0.4351,-0.86914 0.8433,-1.80742 0.8433,-1.80742 l 0.0406,0 c 0,0 -0.0543,0.81523 -0.0543,1.93047 l 0,4.45898 1.7129,0 0,-9.421872 -1.9847,0 -2.3793,4.705082 c -0.4758,0.95117 -0.9657,2.08007 -0.9657,2.08007 l -0.0539,0 c 0,0 0.0411,-0.92461 0.0539,-2.18945 l 0,-4.595702 -1.7128,0 0,9.421872" /><path
       inkscape:connector-curvature="0"
       id="path22"
       style="fill:#231f20;fill-opacity:1;fill-rule:nonzero;stroke:none"
       d="m 49.484,0.542969 0,1.509761 c 0.6797,-0.28632 1.4957,-0.51757 2.4066,-0.51757 1.0875,0 1.5637,0.42187 1.5637,1.22461 0,0.73437 -0.327,0.96484 -1.1969,1.25 l -0.7066,0.24531 c -1.2918,0.4207 -2.0395,1.12773 -2.0395,2.71953 0,1.67187 1.0469,2.74609 3.1133,2.74609 1.2098,0 1.8356,-0.21875 2.3113,-0.44922 l 0,-1.49609 c -0.53,0.21875 -1.2507,0.42188 -2.175,0.42188 -0.8976,0 -1.3601,-0.35352 -1.3601,-1.06055 0,-0.63867 0.2859,-0.89649 1.0605,-1.15547 L 53.182,5.75 C 54.5414,5.31523 55.4117,4.70313 55.4117,2.96289 55.4117,1.12773 54.3512,0 52.1078,0 50.9934,0 50.0688,0.216797 49.484,0.542969" /><path
       inkscape:connector-curvature="0"
       id="path24"
       style="fill:#231f20;fill-opacity:1;fill-rule:nonzero;stroke:none"
       d="m 65.0602,4.39063 0,0.78906 c 0,2.01172 -0.5168,3.03125 -1.9036,3.03125 -1.305,0 -1.8761,-1.06055 -1.8761,-2.86914 l 0,-0.78828 c 0,-2.02539 0.5437,-3.04571 1.9168,-3.04571 1.2785,0 1.8629,1.03321 1.8629,2.88282 z m -5.8735,0.23164 0,0.46171 c 0,3.09961 1.6586,4.63672 3.9973,4.63672 2.3789,0 3.9699,-1.41406 3.9699,-4.5957 l 0,-0.49023 C 67.1539,1.53516 65.509,0 63.1566,0 60.791,0 59.1867,1.41328 59.1867,4.62227" /><path
       inkscape:connector-curvature="0"
       id="path26"
       style="fill:#231f20;fill-opacity:1;fill-rule:nonzero;stroke:none"
       d="m 71.3355,3.26172 0,6.30859 1.9848,0 0,-6.22656 c 0,-1.33203 0.5031,-1.83594 1.6039,-1.83594 1.0879,0 1.5367,0.50391 1.5367,1.84961 l 0,6.21289 1.8219,0 0,-6.28125 C 78.2828,1.10078 77.1949,0 74.8566,0 72.4777,0 71.3355,1.11445 71.3355,3.26172" /><path
       inkscape:connector-curvature="0"
       id="path28"
       style="fill:#231f20;fill-opacity:1;fill-rule:nonzero;stroke:none"
       d="m 85.7953,5.13867 c 1.0059,0 1.4141,0.48906 1.4141,1.52227 0,1.0332 -0.3946,1.46797 -1.4414,1.46797 l -0.9785,0 0,-2.99024 1.0058,0 z m -2.9637,4.43164 3.195,0 c 2.148,0 3.1953,-0.86914 3.1953,-2.81445 0,-1.33203 -0.5852,-2.01172 -1.5094,-2.40625 l 0,-0.05469 2.0395,-4.146482 -2.0805,0 -1.7535,3.685542 -1.1153,0 0,-3.685542 -1.9711,0 0,9.421872" /><path
       inkscape:connector-curvature="0"
       id="path30"
       style="fill:#231f20;fill-opacity:1;fill-rule:nonzero;stroke:none"
       d="m 93.2676,4.59453 0,0.50313 c 0,3.43945 1.8629,4.62304 4.1875,4.62304 0.9789,0 1.6722,-0.17773 2.1621,-0.43554 l 0,-1.48243 c -0.5711,0.21875 -1.1289,0.35352 -1.8902,0.35352 -1.4543,0 -2.3383,-0.77461 -2.3383,-2.8957 l 0,-0.59844 c 0,-1.99805 0.6254,-3.09961 2.3383,-3.09961 0.8976,0 1.5093,0.21797 1.9718,0.43555 l 0,-1.482425 C 99.141,0.216797 98.366,0 97.3195,0 94.777,0 93.2676,1.42695 93.2676,4.59453" /><path
       inkscape:connector-curvature="0"
       id="path32"
       style="fill:#231f20;fill-opacity:1;fill-rule:nonzero;stroke:none"
       d="m 103.854,9.57031 5.628,0 0,-1.49492 -3.657,0 0,-2.35273 2.883,0 0,-1.48164 -2.883,0 0,-2.59649 3.753,0 0,-1.496092 -5.724,0 0,9.421872" /><path
       inkscape:connector-curvature="0"
       id="path34"
       style="fill:#231f20;fill-opacity:1;fill-rule:nonzero;stroke:none"
       d="m 118.693,4.59453 0,0.50313 c 0,3.43945 1.862,4.62304 4.187,4.62304 0.979,0 1.672,-0.17773 2.162,-0.43554 l 0,-1.48243 c -0.572,0.21875 -1.128,0.35352 -1.89,0.35352 -1.455,0 -2.338,-0.77461 -2.338,-2.8957 l 0,-0.59844 c 0,-1.99805 0.625,-3.09961 2.338,-3.09961 0.897,0 1.51,0.21797 1.972,0.43555 l 0,-1.482425 C 124.566,0.216797 123.791,0 122.744,0 c -2.542,0 -4.051,1.42695 -4.051,4.59453" /><path
       inkscape:connector-curvature="0"
       id="path36"
       style="fill:#231f20;fill-opacity:1;fill-rule:nonzero;stroke:none"
       d="m 134.771,4.39063 0,0.78906 c 0,2.01172 -0.516,3.03125 -1.902,3.03125 -1.306,0 -1.877,-1.06055 -1.877,-2.86914 l 0,-0.78828 c 0,-2.02539 0.544,-3.04571 1.917,-3.04571 1.278,0 1.862,1.03321 1.862,2.88282 z m -5.873,0.23164 0,0.46171 c 0,3.09961 1.658,4.63672 3.998,4.63672 2.379,0 3.969,-1.41406 3.969,-4.5957 l 0,-0.49023 C 136.865,1.53516 135.22,0 132.869,0 c -2.367,0 -3.971,1.41328 -3.971,4.62227" /><path
       inkscape:connector-curvature="0"
       id="path38"
       style="fill:#231f20;fill-opacity:1;fill-rule:nonzero;stroke:none"
       d="m 141.101,9.57031 2.23,0 2.27,-4.58203 c 0.436,-0.86914 0.844,-1.80742 0.844,-1.80742 l 0.04,0 c 0,0 -0.054,0.81523 -0.054,1.93047 l 0,4.45898 1.713,0 0,-9.421872 -1.985,0 -2.38,4.705082 c -0.475,0.95117 -0.965,2.08007 -0.965,2.08007 l -0.055,0 c 0,0 0.041,-0.92461 0.055,-2.18945 l 0,-4.595702 -1.713,0 0,9.421872" /><path
       inkscape:connector-curvature="0"
       id="path40"
       style="fill:#231f20;fill-opacity:1;fill-rule:nonzero;stroke:none"
       d="m 152.053,9.57031 2.04,0 1.563,-5.45117 c 0.245,-0.88359 0.422,-1.6457 0.422,-1.6457 l 0.041,0 c 0,0 0.189,0.73437 0.434,1.65937 l 1.55,5.4375 1.85,0 -2.883,-9.421872 -2.121,0 -2.896,9.421872" /><path
       inkscape:connector-curvature="0"
       id="path42"
       style="fill:#231f20;fill-opacity:1;fill-rule:nonzero;stroke:none"
       d="m 163.876,9.57031 5.628,0 0,-1.49492 -3.657,0 0,-2.35273 2.883,0 0,-1.48164 -2.883,0 0,-2.59649 3.752,0 0,-1.496092 -5.723,0 0,9.421872" /><path
       inkscape:connector-curvature="0"
       id="path44"
       style="fill:#231f20;fill-opacity:1;fill-rule:nonzero;stroke:none"
       d="m 173.877,9.57031 2.23,0 2.27,-4.58203 c 0.435,-0.86914 0.843,-1.80742 0.843,-1.80742 l 0.041,0 c 0,0 -0.054,0.81523 -0.054,1.93047 l 0,4.45898 1.712,0 0,-9.421872 -1.984,0 -2.379,4.705082 c -0.476,0.95117 -0.966,2.08007 -0.966,2.08007 l -0.053,0 c 0,0 0.041,-0.92461 0.053,-2.18945 l 0,-4.595702 -1.713,0 0,9.421872" /><path
       inkscape:connector-curvature="0"
       id="path46"
       style="fill:#231f20;fill-opacity:1;fill-rule:nonzero;stroke:none"
       d="m 187.263,8.07539 -2.324,0 0,1.49492 6.635,0 0,-1.49492 -2.326,0 0,-7.926952 -1.985,0 0,7.926952" /><path
       inkscape:connector-curvature="0"
       id="path48"
       style="fill:#231f20;fill-opacity:1;fill-rule:nonzero;stroke:none"
       d="m 195.621,0.148438 1.98398,0 0,9.42188 -1.98398,0 0,-9.42188 z" /><path
       inkscape:connector-curvature="0"
       id="path50"
       style="fill:#231f20;fill-opacity:1;fill-rule:nonzero;stroke:none"
       d="m 207.73,4.39063 0,0.78906 c 0,2.01172 -0.516,3.03125 -1.902,3.03125 -1.306,0 -1.877,-1.06055 -1.877,-2.86914 l 0,-0.78828 c 0,-2.02539 0.544,-3.04571 1.917,-3.04571 1.278,0 1.862,1.03321 1.862,2.88282 z m -5.873,0.23164 0,0.46171 c 0,3.09961 1.658,4.63672 3.998,4.63672 2.379,0 3.969,-1.41406 3.969,-4.5957 l 0,-0.49023 C 209.824,1.53516 208.179,0 205.828,0 c -2.367,0 -3.971,1.41328 -3.971,4.62227" /><path
       inkscape:connector-curvature="0"
       id="path52"
       style="fill:#231f20;fill-opacity:1;fill-rule:nonzero;stroke:none"
       d="m 214.06,9.57031 2.23,0 2.27,-4.58203 c 0.436,-0.86914 0.844,-1.80742 0.844,-1.80742 l 0.04,0 c 0,0 -0.054,0.81523 -0.054,1.93047 l 0,4.45898 1.713,0 0,-9.421872 -1.985,0 -2.38,4.705082 c -0.475,0.95117 -0.965,2.08007 -0.965,2.08007 l -0.055,0 c 0,0 0.041,-0.92461 0.055,-2.18945 l 0,-4.595702 -1.713,0 0,9.421872" /><path
       inkscape:connector-curvature="0"
       id="path54"
       style="fill:#231f20;fill-opacity:1;fill-rule:nonzero;stroke:none"
       d="m 21.9961,67.8516 c -11.2676,0 -18.83907,-8.2332 -18.83907,-20.4871 0,-14.3774 6.69063,-22.6223 18.35467,-22.6223 11.6758,0 18.6457,7.9133 18.6457,21.1672 0,13.9441 -6.6191,21.9422 -18.1613,21.9422 z M 21.8027,22.2695 c -13.32614,0 -21.603481,9.616 -21.603481,25.095 0,13.5757 8.962891,23.0574 21.796881,23.0574 13.0266,0 21.1191,-9.2442 21.1191,-24.125 0,-14.5957 -8.366,-24.0274 -21.3125,-24.0274" /><path
       inkscape:connector-curvature="0"
       id="path56"
       style="fill:#231f20;fill-opacity:1;fill-rule:nonzero;stroke:none"
       d="m 65.5676,22.2695 c -7.6145,0 -12.2512,2.3606 -15.5012,7.8926 l -0.041,-4.9109 c 0,-1.0168 -0.4981,-1.6242 -1.3328,-1.6242 -0.9094,0 -1.4309,0.5918 -1.4309,1.6242 l 0,12.7051 c 0,1.032 0.5215,1.6238 1.4309,1.6238 1.2918,0 1.3457,-0.709 1.5262,-3.0586 0.5656,-6.8789 6.7968,-11.6824 15.1542,-11.6824 8.8536,0 14.5723,4.2351 14.5723,10.7898 0,2.302 -0.8633,4.332 -2.4305,5.7168 -1.8488,1.7512 -3.8332,2.4836 -8.4933,3.1356 l -6.3067,0.9718 c -9.9472,1.4617 -14.58,5.2742 -14.58,11.9973 0,7.6375 6.8097,12.9715 16.5605,12.9715 6.4348,0 11.259,-2.2188 14.3379,-6.5949 l 0.0391,3.6132 c 0,1.0168 0.4992,1.6243 1.334,1.6243 0.9093,0 1.4304,-0.5918 1.4304,-1.6243 l 0,-11.8328 c 0,-1.032 -0.5211,-1.6238 -1.4304,-1.6238 -0.4004,0 -1.334,0.168 -1.334,1.7207 0.0429,3.3047 -1.0196,6.1504 -3.0723,8.2293 -2.5312,2.5637 -6.4402,3.918 -11.3047,3.918 -8.0781,0 -13.5058,-4.1028 -13.5058,-10.2078 0,-4.8809 3.7753,-8.0942 10.6328,-9.0469 L 67.543,47.8215 C 75.2609,46.6484 78.0488,45.5461 80.5117,42.6895 82.1621,40.5227 83,38.1465 83,35.6289 83,27.6387 75.9941,22.2695 65.5676,22.2695" /><path
       inkscape:connector-curvature="0"
       id="path58"
       style="fill:#d4103f;fill-opacity:1;fill-rule:nonzero;stroke:none"
       d="m 106.822,22.2695 c -13.1021,0 -20.9243,8.8368 -20.9243,23.6399 0,15.1199 7.9058,24.5125 20.6333,24.5125 7.219,0 12.861,-3.1961 15.888,-8.9989 l 0.041,5.8219 c 0,1.018 0.498,1.625 1.334,1.625 0.909,0 1.43,-0.5926 1.43,-1.625 l 0,-14.159 c 0,-1.0324 -0.521,-1.625 -1.43,-1.625 -1.13,0 -1.433,0.8645 -1.623,2.5645 -0.662,8.5281 -6.581,13.8262 -15.446,13.8262 -10.6879,0 -17.8695,-8.6621 -17.8695,-21.5547 0,-6.0071 1.6347,-11.5301 4.6035,-15.5535 3.0762,-4.0383 7.353,-6.0012 13.072,-6.0012 8.227,0 14.215,4.5168 15.254,11.5066 0.377,2.0782 0.601,2.75 1.816,2.75 1,0 1.623,-0.6968 1.623,-1.8179 0,-2.5774 -1.74,-6.3989 -4.234,-9.2922 -3.385,-3.7813 -8.019,-5.6192 -14.168,-5.6192" /><path
       inkscape:connector-curvature="0"
       id="path60"
       style="fill:#d4103f;fill-opacity:1;fill-rule:nonzero;stroke:none"
       d="m 151.195,67.8516 c -11.268,0 -18.84,-8.2332 -18.84,-20.4871 0,-14.3774 6.691,-22.6223 18.355,-22.6223 11.676,0 18.645,7.9133 18.645,21.1672 0,13.9441 -6.619,21.9422 -18.16,21.9422 z m -0.194,-45.5821 c -13.326,0 -21.603,9.616 -21.603,25.095 0,13.5757 8.963,23.0574 21.797,23.0574 13.025,0 21.119,-9.2442 21.119,-24.125 0,-14.5957 -8.367,-24.0274 -21.313,-24.0274" /><path
       inkscape:connector-curvature="0"
       id="path62"
       style="fill:#d4103f;fill-opacity:1;fill-rule:nonzero;stroke:none"
       d="m 203.091,23.627 c -0.836,0 -1.334,0.4257 -1.334,1.1394 0,0.7141 0.498,1.1399 1.334,1.1399 l 6.303,0 c 0.826,0 1.092,0.2648 1.092,1.091 l 0,27.6406 c 0,8.584 -4.969,13.3113 -13.99,13.3113 -9.407,0 -15.25,-6.364 -15.25,-16.6086 l 0,-24.3433 c 0,-0.8262 0.265,-1.091 1.091,-1.091 l 6.207,0 c 1.245,0 1.432,-0.7137 1.432,-1.1399 0,-0.4258 -0.187,-1.1394 -1.432,-1.1394 l -17.359,0 c -0.836,0 -1.334,0.4257 -1.334,1.1394 0,0.7141 0.498,1.1399 1.334,1.1399 l 6.109,0 c 0.827,0 1.092,0.2648 1.092,1.091 l 0,38.6968 c 0,0.8262 -0.265,1.0911 -1.092,1.0911 l -6.109,0 c -0.836,0 -1.334,0.4257 -1.334,1.1394 0,0.7141 0.498,1.1399 1.334,1.1399 l 8.438,0 c 1.107,0 1.623,-0.5165 1.623,-1.6243 l 0,-6.0476 c 3.234,5.9883 8.513,9.0293 15.734,9.0293 4.873,0 9.436,-1.4754 12.203,-3.9461 2.879,-2.5813 4.164,-6.2024 4.164,-11.7403 l 0,-27.7382 c 0,-0.8262 0.266,-1.091 1.092,-1.091 l 5.916,0 c 0.834,0 1.332,-0.4258 1.332,-1.1399 0,-0.7137 -0.498,-1.1394 -1.332,-1.1394 l -17.264,0" /></g></svg>